<svg width="217" height="75" viewBox="0 0 217 75" fill="none" xmlns="http://www.w3.org/2000/svg">
<path d="M62.209 34.4072H2.20898V74.4072H62.209V34.4072Z" fill="#6B7280"/>
<path d="M2.20898 34.4072L17.209 24.4072L32.209 34.4072L47.209 24.4072L62.209 34.4072H2.20898Z" fill="#6B7280"/>
<path d="M57.209 9.40723H47.209V34.4072H57.209V9.40723Z" fill="#6B7280"/>
<path d="M20.209 49.4072H12.209V57.4072H20.209V49.4072Z" fill="#0F1115"/>
<path d="M32.209 49.4072H24.209V57.4072H32.209V49.4072Z" fill="#0F1115"/>
<path d="M44.209 49.4072H36.209V57.4072H44.209V49.4072Z" fill="#0F1115"/>
<path d="M1.11279 31.9131L17.1961 21.1443L31.5414 30.8204L47.1746 6.28394" stroke="#FF5A2C" stroke-width="4"/>
<path d="M51.0919 1.03564L44.9819 4.63879L49.4641 7.60009L51.0919 1.03564Z" fill="#FF5A2C" stroke="#FF5A2C"/>
<path d="M68.0391 74.4072V51.501H83.7422V55.376H72.6641V60.7979H82.2266V64.6729H72.6641V74.4072H68.0391ZM106.445 74.4072H101.414L99.4141 69.2041H90.2578L88.3672 74.4072H83.4609L92.3828 51.501H97.2734L106.445 74.4072ZM97.9297 65.3447L94.7734 56.8447L91.6797 65.3447H97.9297ZM123.57 65.9854L128.055 67.4072C127.367 69.9072 126.221 71.7666 124.617 72.9854C123.023 74.1937 120.997 74.7979 118.539 74.7979C115.497 74.7979 112.997 73.7614 111.039 71.6885C109.081 69.6051 108.102 66.7614 108.102 63.1572C108.102 59.3447 109.086 56.3864 111.055 54.2822C113.023 52.1676 115.612 51.1104 118.82 51.1104C121.622 51.1104 123.898 51.9385 125.648 53.5947C126.69 54.5739 127.471 55.9801 127.992 57.8135L123.414 58.9072C123.143 57.7197 122.576 56.7822 121.711 56.0947C120.857 55.4072 119.815 55.0635 118.586 55.0635C116.888 55.0635 115.508 55.6729 114.445 56.8916C113.393 58.1104 112.867 60.0843 112.867 62.8135C112.867 65.7093 113.388 67.7718 114.43 69.001C115.471 70.2301 116.826 70.8447 118.492 70.8447C119.721 70.8447 120.779 70.4541 121.664 69.6729C122.549 68.8916 123.185 67.6624 123.57 65.9854ZM137.195 74.4072V55.376H130.398V51.501H148.602V55.376H141.82V74.4072H137.195ZM150.07 63.0947C150.07 60.7614 150.419 58.8031 151.117 57.2197C151.638 56.0531 152.346 55.0062 153.242 54.0791C154.148 53.152 155.138 52.4645 156.211 52.0166C157.638 51.4124 159.284 51.1104 161.148 51.1104C164.523 51.1104 167.221 52.1572 169.242 54.251C171.273 56.3447 172.289 59.2562 172.289 62.9854C172.289 66.6833 171.284 69.5791 169.273 71.6729C167.263 73.7562 164.576 74.7979 161.211 74.7979C157.805 74.7979 155.096 73.7614 153.086 71.6885C151.076 69.6051 150.07 66.7406 150.07 63.0947ZM154.836 62.9385C154.836 65.5322 155.435 67.501 156.633 68.8447C157.831 70.1781 159.352 70.8447 161.195 70.8447C163.039 70.8447 164.549 70.1833 165.727 68.8604C166.914 67.527 167.508 65.5322 167.508 62.876C167.508 60.251 166.93 58.2926 165.773 57.001C164.628 55.7093 163.102 55.0635 161.195 55.0635C159.289 55.0635 157.753 55.7197 156.586 57.0322C155.419 58.3343 154.836 60.3031 154.836 62.9385ZM175.93 74.4072V51.501H185.664C188.112 51.501 189.888 51.7093 190.992 52.126C192.107 52.5322 192.997 53.2614 193.664 54.3135C194.331 55.3656 194.664 56.5687 194.664 57.9229C194.664 59.6416 194.159 61.0635 193.148 62.1885C192.138 63.3031 190.628 64.0062 188.617 64.2979C189.617 64.8812 190.44 65.5218 191.086 66.2197C191.742 66.9176 192.622 68.1572 193.727 69.9385L196.523 74.4072H190.992L187.648 69.4229C186.461 67.6416 185.648 66.5218 185.211 66.0635C184.773 65.5947 184.31 65.277 183.82 65.1104C183.331 64.9333 182.555 64.8447 181.492 64.8447H180.555V74.4072H175.93ZM180.555 61.1885H183.977C186.195 61.1885 187.581 61.0947 188.133 60.9072C188.685 60.7197 189.117 60.3968 189.43 59.9385C189.742 59.4801 189.898 58.9072 189.898 58.2197C189.898 57.4489 189.69 56.8291 189.273 56.3604C188.867 55.8812 188.289 55.5791 187.539 55.4541C187.164 55.402 186.039 55.376 184.164 55.376H180.555V61.1885ZM203.867 74.4072V64.7666L195.477 51.501H200.898L206.289 60.5635L211.57 51.501H216.898L208.477 64.7979V74.4072H203.867Z" fill="#FF5A2C"/>
<path d="M67.8672 46.4072V23.501H72.4922V46.4072H67.8672ZM76.9609 46.4072V23.501H81.4609L90.8359 38.7979V23.501H95.1328V46.4072H90.4922L81.2578 31.4697V46.4072H76.9609ZM98.8672 38.9541L103.367 38.5166C103.638 40.027 104.185 41.1364 105.008 41.8447C105.841 42.5531 106.961 42.9072 108.367 42.9072C109.857 42.9072 110.977 42.5947 111.727 41.9697C112.487 41.3343 112.867 40.5947 112.867 39.751C112.867 39.2093 112.706 38.751 112.383 38.376C112.07 37.9906 111.518 37.6572 110.727 37.376C110.185 37.1885 108.951 36.8551 107.023 36.376C104.544 35.7614 102.805 35.0062 101.805 34.1104C100.398 32.8499 99.6953 31.3135 99.6953 29.501C99.6953 28.3343 100.023 27.2458 100.68 26.2354C101.346 25.2145 102.299 24.4385 103.539 23.9072C104.789 23.376 106.294 23.1104 108.055 23.1104C110.93 23.1104 113.091 23.7406 114.539 25.001C115.997 26.2614 116.763 27.9437 116.836 30.0479L112.211 30.251C112.013 29.0739 111.586 28.2301 110.93 27.7197C110.284 27.1989 109.31 26.9385 108.008 26.9385C106.664 26.9385 105.612 27.2145 104.852 27.7666C104.362 28.1208 104.117 28.5947 104.117 29.1885C104.117 29.7301 104.346 30.1937 104.805 30.5791C105.388 31.0687 106.805 31.5791 109.055 32.1104C111.305 32.6416 112.966 33.1937 114.039 33.7666C115.122 34.3291 115.966 35.1051 116.57 36.0947C117.185 37.0739 117.492 38.2874 117.492 39.7354C117.492 41.0479 117.128 42.277 116.398 43.4229C115.669 44.5687 114.638 45.4229 113.305 45.9854C111.971 46.5374 110.31 46.8135 108.32 46.8135C105.424 46.8135 103.201 46.1468 101.648 44.8135C100.096 43.4697 99.1693 41.5166 98.8672 38.9541ZM121.242 46.4072V23.501H125.867V46.4072H121.242ZM130.273 23.501H138.727C140.633 23.501 142.086 23.6468 143.086 23.9385C144.43 24.3343 145.581 25.0374 146.539 26.0479C147.497 27.0583 148.227 28.2979 148.727 29.7666C149.227 31.2249 149.477 33.027 149.477 35.1729C149.477 37.0583 149.242 38.6833 148.773 40.0479C148.201 41.7145 147.383 43.0635 146.32 44.0947C145.518 44.876 144.435 45.4854 143.07 45.9229C142.049 46.2458 140.685 46.4072 138.977 46.4072H130.273V23.501ZM134.898 27.376V42.5479H138.352C139.643 42.5479 140.576 42.4749 141.148 42.3291C141.898 42.1416 142.518 41.8239 143.008 41.376C143.508 40.9281 143.914 40.1937 144.227 39.1729C144.539 38.1416 144.695 36.7406 144.695 34.9697C144.695 33.1989 144.539 31.8395 144.227 30.8916C143.914 29.9437 143.477 29.2041 142.914 28.6729C142.352 28.1416 141.638 27.7822 140.773 27.5947C140.128 27.4489 138.862 27.376 136.977 27.376H134.898ZM153.414 46.4072V23.501H170.398V27.376H158.039V32.4541H169.539V36.3135H158.039V42.5479H170.836V46.4072H153.414ZM174.773 46.4072V23.501H184.508C186.956 23.501 188.732 23.7093 189.836 24.126C190.951 24.5322 191.841 25.2614 192.508 26.3135C193.174 27.3656 193.508 28.5687 193.508 29.9229C193.508 31.6416 193.003 33.0635 191.992 34.1885C190.982 35.3031 189.471 36.0062 187.461 36.2979C188.461 36.8812 189.284 37.5218 189.93 38.2197C190.586 38.9176 191.466 40.1572 192.57 41.9385L195.367 46.4072H189.836L186.492 41.4229C185.305 39.6416 184.492 38.5218 184.055 38.0635C183.617 37.5947 183.154 37.277 182.664 37.1104C182.174 36.9333 181.398 36.8447 180.336 36.8447H179.398V46.4072H174.773ZM179.398 33.1885H182.82C185.039 33.1885 186.424 33.0947 186.977 32.9072C187.529 32.7197 187.961 32.3968 188.273 31.9385C188.586 31.4801 188.742 30.9072 188.742 30.2197C188.742 29.4489 188.534 28.8291 188.117 28.3604C187.711 27.8812 187.133 27.5791 186.383 27.4541C186.008 27.402 184.883 27.376 183.008 27.376H179.398V33.1885Z" fill="#CBD5E1"/>
</svg>
